<svg width="15" height="21" viewBox="0 0 15 21" fill="none" xmlns="http://www.w3.org/2000/svg">
<path d="M7.5 0C3.36445 0 0 3.3658 0 7.50298C0 13.6671 6.75347 19.6858 7.04107 19.9391C7.17218 20.0546 7.33605 20.1124 7.5 20.1124C7.66395 20.1124 7.82782 20.0546 7.95899 19.9391C8.24646 19.6859 15 13.6672 15 7.50298C15 3.3658 11.6356 0 7.5 0ZM7.5 18.466C6.00688 17.0192 1.3889 12.1663 1.3889 7.50298C1.3889 4.13169 4.13034 1.3889 7.5 1.3889C10.8697 1.3889 13.6111 4.13169 13.6111 7.50298C13.6111 12.1662 8.99312 17.0191 7.5 18.466Z" fill="#F2D121"/>
<path d="M7.5 4.00778C5.5854 4.00778 4.02781 5.57573 4.02781 7.50299C4.02781 9.43032 5.5854 10.9982 7.5 10.9982C9.4146 10.9982 10.9722 9.43032 10.9722 7.50299C10.9722 5.57573 9.4146 4.00778 7.5 4.00778ZM7.5 9.6093C6.35123 9.6093 5.41665 8.66443 5.41665 7.50299C5.41665 6.34162 6.35123 5.39668 7.5 5.39668C8.64877 5.39668 9.58335 6.34156 9.58335 7.50299C9.58335 8.66443 8.64877 9.6093 7.5 9.6093Z" fill="#F2D121"/>
</svg>
