<svg width="106" height="145" viewBox="0 0 106 145" fill="none" xmlns="http://www.w3.org/2000/svg">
<path d="M6 96.1385C6 67.0089 26.9352 38.1202 53 9.11111C78.85 38.1202 100 67.0089 100 96.1385C100 125.268 78.9574 139 53 139C27.0426 139 6 125.268 6 96.1385Z" stroke="white" stroke-width="11"/>
<path d="M52.36 79.2222C52.36 80.9502 52.0613 82.5182 51.464 83.9262C50.8667 85.3342 50.056 86.5502 49.032 87.5742C48.0293 88.5769 46.8667 89.3556 45.544 89.9102C44.2213 90.4436 42.8453 90.7102 41.416 90.7102C39.8373 90.7102 38.3867 90.4436 37.064 89.9102C35.7413 89.3556 34.5893 88.5769 33.608 87.5742C32.648 86.5502 31.8907 85.3342 31.336 83.9262C30.8027 82.5182 30.536 80.9502 30.536 79.2222C30.536 77.4302 30.8027 75.8196 31.336 74.3902C31.8907 72.9396 32.648 71.7129 33.608 70.7102C34.5893 69.6862 35.7413 68.8969 37.064 68.3422C38.3867 67.7876 39.8373 67.5102 41.416 67.5102C42.9947 67.5102 44.456 67.7876 45.8 68.3422C47.144 68.8969 48.296 69.6862 49.256 70.7102C50.2373 71.7129 50.9947 72.9396 51.528 74.3902C52.0827 75.8196 52.36 77.4302 52.36 79.2222ZM45.576 79.2222C45.576 78.0702 45.4693 77.1102 45.256 76.3422C45.0427 75.5529 44.744 74.9236 44.36 74.4542C43.9973 73.9849 43.56 73.6542 43.048 73.4622C42.536 73.2489 41.992 73.1422 41.416 73.1422C40.84 73.1422 40.296 73.2489 39.784 73.4622C39.2933 73.6542 38.8667 73.9849 38.504 74.4542C38.1627 74.9236 37.8853 75.5529 37.672 76.3422C37.48 77.1102 37.384 78.0702 37.384 79.2222C37.384 80.3529 37.48 81.2916 37.672 82.0382C37.8853 82.7849 38.1627 83.3929 38.504 83.8622C38.8667 84.3102 39.2933 84.6302 39.784 84.8222C40.296 85.0142 40.84 85.1102 41.416 85.1102C41.992 85.1102 42.536 85.0142 43.048 84.8222C43.56 84.6302 43.9973 84.3102 44.36 83.8622C44.744 83.3929 45.0427 82.7849 45.256 82.0382C45.4693 81.2916 45.576 80.3529 45.576 79.2222ZM67.4 69.3342C67.6987 68.9929 68.0507 68.6836 68.456 68.4062C68.8827 68.1289 69.4693 67.9902 70.216 67.9902H76.648L41.928 113.142C41.6293 113.505 41.2667 113.814 40.84 114.07C40.4133 114.305 39.8907 114.422 39.272 114.422H32.712L67.4 69.3342ZM78.792 103.51C78.792 105.238 78.4933 106.806 77.896 108.214C77.2987 109.622 76.488 110.838 75.464 111.862C74.4613 112.865 73.2987 113.644 71.976 114.198C70.6533 114.732 69.2773 114.998 67.848 114.998C66.2693 114.998 64.8187 114.732 63.496 114.198C62.1733 113.644 61.0213 112.865 60.04 111.862C59.08 110.838 58.3227 109.622 57.768 108.214C57.2347 106.806 56.968 105.238 56.968 103.51C56.968 101.718 57.2347 100.108 57.768 98.6782C58.3227 97.2276 59.08 96.0009 60.04 94.9982C61.0213 93.9742 62.1733 93.1956 63.496 92.6622C64.8187 92.1076 66.2693 91.8302 67.848 91.8302C69.4267 91.8302 70.888 92.1076 72.232 92.6622C73.576 93.1956 74.728 93.9742 75.688 94.9982C76.6693 96.0009 77.4267 97.2276 77.96 98.6782C78.5147 100.108 78.792 101.718 78.792 103.51ZM72.008 103.51C72.008 102.358 71.9013 101.398 71.688 100.63C71.4747 99.8409 71.176 99.2116 70.792 98.7422C70.4293 98.2729 69.992 97.9422 69.48 97.7502C68.968 97.5369 68.424 97.4302 67.848 97.4302C67.272 97.4302 66.728 97.5369 66.216 97.7502C65.7253 97.9422 65.2987 98.2729 64.936 98.7422C64.5947 99.2116 64.3173 99.8409 64.104 100.63C63.912 101.398 63.816 102.358 63.816 103.51C63.816 104.641 63.912 105.58 64.104 106.326C64.3173 107.073 64.5947 107.681 64.936 108.15C65.2987 108.598 65.7253 108.918 66.216 109.11C66.728 109.302 67.272 109.398 67.848 109.398C68.424 109.398 68.968 109.302 69.48 109.11C69.992 108.918 70.4293 108.598 70.792 108.15C71.176 107.681 71.4747 107.073 71.688 106.326C71.9013 105.58 72.008 104.641 72.008 103.51Z" fill="white"/>
</svg>
