<svg width="166" height="166" viewBox="0 0 166 166" fill="none" xmlns="http://www.w3.org/2000/svg">
<path d="M65.8812 16.7945C51.2266 16.7945 39.2953 31.0926 39.2953 48.6328C39.2953 51.9074 36.8961 54.9551 33.6539 55.4414C24.057 56.868 16.827 66.7566 16.827 78.4609C16.827 91.2676 25.4188 101.707 35.9883 101.707H130.044C140.614 101.707 149.205 91.3 149.205 78.4609C149.205 65.6219 141.359 55.2145 130.044 55.2145C123.171 55.2145 122.198 52.7504 121.744 49.4758C120.382 39.3602 113.023 31.741 104.625 31.741C102.096 31.741 99.6324 32.4867 97.2656 33.7836C94.3801 35.3723 90.4895 35.4047 88.1551 31.2223C83.1621 22.2414 74.8945 16.7945 65.8812 16.7945V16.7945ZM130.044 115H35.9559C18.0914 115 3.56641 98.6273 3.56641 78.5258C3.56641 62.4121 13.0336 48.4059 26.3266 43.7371C28.5637 21.0418 45.4555 3.56641 65.8812 3.56641C77.9098 3.56641 88.9981 9.53203 96.5199 19.8098C99.1461 18.9992 101.87 18.5777 104.625 18.5777C118.145 18.5777 129.687 28.2719 133.708 42.2781C149.854 44.3531 162.434 59.8184 162.434 78.5258C162.434 98.6273 147.909 115 130.044 115Z" fill="white"/>
<path d="M44.1586 162.434C43.4453 162.434 42.732 162.304 42.0188 162.077C38.5496 160.91 36.7016 157.116 37.9012 153.68L43.1535 138.312C44.3207 134.843 48.1141 133.027 51.5508 134.194C55.0199 135.361 56.868 139.155 55.6684 142.591L50.416 157.959C49.4758 160.715 46.9145 162.434 44.1586 162.434Z" fill="white"/>
<path d="M80.3738 162.434C79.6605 162.434 78.9473 162.304 78.234 162.077C74.7648 160.91 72.9168 157.116 74.1164 153.68L79.3687 138.312C80.5359 134.843 84.3293 133.027 87.766 134.194C91.2351 135.361 93.0832 139.155 91.8836 142.591L86.6312 157.959C85.691 160.715 83.1297 162.434 80.3738 162.434V162.434Z" fill="white"/>
<path d="M116.589 162.434C115.876 162.434 115.162 162.304 114.449 162.077C110.98 160.91 109.132 157.116 110.332 153.68L115.584 138.312C116.784 134.843 120.512 133.027 123.981 134.194C127.45 135.361 129.298 139.155 128.099 142.591L122.846 157.959C121.906 160.715 119.345 162.434 116.589 162.434V162.434Z" fill="white"/>
</svg>
