<svg width="150" height="150" viewBox="0 0 150 150" fill="none" xmlns="http://www.w3.org/2000/svg">
<path d="M104.658 96.6V20.4311C104.658 9.16523 95.4929 0 84.2274 0C72.9615 0 63.7963 9.16523 63.7963 20.4311V96.6C42.9264 115.368 56.3148 150 84.2274 150C112.195 150 125.497 115.339 104.658 96.6ZM74.7721 20.4311C74.7718 15.2174 79.0134 10.9755 84.2271 10.9755C89.4407 10.9755 93.6829 15.2171 93.6829 20.4311V67.0799H74.7721V20.4311ZM84.2274 139.025C65.3622 139.025 57.3961 114.837 72.552 103.604C73.9485 102.568 74.7721 100.933 74.7721 99.1948V78.0563H93.6829V99.1948C93.6829 100.933 94.5065 102.569 95.903 103.604C111.05 114.831 103.112 139.025 84.2274 139.025Z" fill="white"/>
<path d="M49.8721 69.5121H40.6482C37.6175 69.5121 35.1603 71.9692 35.1603 75C35.1603 78.0308 37.6175 80.4879 40.6482 80.4879H49.8721C52.9028 80.4879 55.36 78.0308 55.36 75C55.36 71.9692 52.9028 69.5121 49.8721 69.5121Z" fill="white"/>
<path d="M49.8721 51.4353H40.6482C37.6175 51.4353 35.1603 53.8925 35.1603 56.9232C35.1603 59.954 37.6175 62.4111 40.6482 62.4111H49.8721C52.9028 62.4111 55.36 59.954 55.36 56.9232C55.36 53.8925 52.9028 51.4353 49.8721 51.4353Z" fill="white"/>
<path d="M49.8721 33.3586H40.6482C37.6175 33.3586 35.1603 35.8157 35.1603 38.8465C35.1603 41.8772 37.6175 44.3344 40.6482 44.3344H49.8721C52.9028 44.3344 55.36 41.8772 55.36 38.8465C55.36 35.8157 52.9028 33.3586 49.8721 33.3586Z" fill="white"/>
</svg>
