<svg width="134" height="106" viewBox="0 0 134 106" fill="none" xmlns="http://www.w3.org/2000/svg">
<path d="M51.7846 8.63665C53.2166 7.1962 54.9822 6.13187 56.9246 5.53826C58.867 4.94465 60.926 4.84016 62.9185 5.23407C64.911 5.62798 66.7753 6.50809 68.3457 7.79616C69.9161 9.08422 71.144 10.7403 71.9201 12.6173C72.6962 14.4943 72.9965 16.5339 72.7944 18.5549C72.5922 20.5759 71.8939 22.5156 70.7614 24.2017C69.6289 25.8878 68.0974 27.2679 66.303 28.2194C64.5086 29.1709 62.5069 29.6644 60.4759 29.6558H5M70.2766 96.5197C71.7085 97.9601 73.4742 99.0245 75.4166 99.6181C77.359 100.212 79.4179 100.316 81.4104 99.9223C83.403 99.5284 85.2673 98.6482 86.8377 97.3602C88.4081 96.0721 89.6359 94.416 90.412 92.539C91.1881 90.6621 91.4885 88.6224 91.2863 86.6014C91.0842 84.5804 90.3858 82.6407 89.2534 80.9546C88.1209 79.2686 86.5894 77.8884 84.795 76.9369C83.0006 75.9854 80.9989 75.492 78.9678 75.5005H5M101.959 26.8358C103.752 25.0476 105.958 23.7286 108.382 22.9957C110.806 22.2628 113.373 22.1385 115.856 22.6337C118.339 23.129 120.662 24.2286 122.62 25.8352C124.577 27.4419 126.108 29.506 127.078 31.8452C128.047 34.1844 128.425 36.7265 128.179 39.2467C127.932 41.7668 127.068 44.1874 125.664 46.2943C124.259 48.4012 122.357 50.1294 120.125 51.3262C117.894 52.523 115.402 53.1515 112.87 53.156H5" stroke="white" stroke-width="10" stroke-linecap="round" stroke-linejoin="round"/>
</svg>
